<svg xmlns="http://www.w3.org/2000/svg" width="24" height="24" viewBox="0 0 24 24" fill="none">
  <path fill-rule="evenodd" clip-rule="evenodd" d="M10.5 3C6.35786 3 3 6.35786 3 10.5C3 14.6421 6.35786 18 10.5 18C12.2105 18 13.7873 17.4274 15.0491 16.4633L19.293 20.7071L20.7072 19.2929L16.4633 15.0491C17.4274 13.7873 18 12.2105 18 10.5C18 6.35786 14.6421 3 10.5 3ZM4.5 10.5C4.5 7.18629 7.18629 4.5 10.5 4.5C13.8137 4.5 16.5 7.18629 16.5 10.5C16.5 13.8137 13.8137 16.5 10.5 16.5C7.18629 16.5 4.5 13.8137 4.5 10.5Z" fill="currentColor"/>
</svg>
